<svg xmlns="http://www.w3.org/2000/svg"  viewBox="0 0 100 100" width="50px" height="50px"><circle cx="79" cy="13" r="1" fill="#f1bc1c"/><circle cx="50" cy="50" r="37" fill="#c1e3e3"/><circle cx="85" cy="15" r="4" fill="#f1bc1c"/><circle cx="13" cy="29" r="2" fill="#00a6a6"/><circle cx="80" cy="78" r="2" fill="#fbcd5b"/><circle cx="26" cy="76" r="4" fill="#fbcd5b"/><circle cx="27" cy="87" r="2" fill="#00a6a6"/><circle cx="58.5" cy="80.5" r="2.5" fill="#fff"/><circle cx="23.029" cy="68.971" r=".971" fill="#fff"/><circle cx="85" cy="31" r="1" fill="#f1bc1c"/><circle cx="78" cy="68" r="2" fill="#fff"/><circle cx="79" cy="34" r="1" fill="#fff"/><g><polygon fill="#ef7a5c" points="27.5,28.055 27.5,61.055 35.5,71.43 35.5,37.055"/><path fill="#482c2a" d="M35.5,72.131c-0.213,0-0.419-0.098-0.554-0.273l-8-10.375c-0.095-0.122-0.146-0.272-0.146-0.427 v-33c0-0.291,0.18-0.551,0.452-0.654c0.269-0.104,0.579-0.029,0.771,0.189l8,9c0.114,0.128,0.177,0.293,0.177,0.465v34.375 c0,0.3-0.191,0.566-0.475,0.663C35.652,72.119,35.576,72.131,35.5,72.131z M28.2,60.817l6.6,8.56V37.322l-6.6-7.425V60.817z"/><polygon fill="#f9eaec" points="35.5,37.055 71.5,35.055 59.5,27.055 27.5,28.055"/><path fill="#482c2a" d="M35.5,37.756c-0.199,0-0.39-0.085-0.523-0.235l-8-9c-0.181-0.203-0.228-0.492-0.12-0.742 s0.35-0.415,0.621-0.423l32-1c0.149,0.004,0.289,0.037,0.41,0.117l12,8c0.251,0.167,0.366,0.476,0.287,0.767 c-0.079,0.291-0.335,0.498-0.636,0.515l-36,2C35.526,37.755,35.513,37.756,35.5,37.756z M29.017,28.708l6.782,7.629l33.565-1.865 l-10.066-6.711L29.017,28.708z"/><path fill="#f9dac0" d="M37.392,36.953l33-1.784c1.145-0.062,2.108,0.85,2.108,1.997v31.994 c0,1.063-0.831,1.94-1.892,1.997l-33,1.784c-1.145,0.062-2.108-0.85-2.108-1.997V38.95C35.5,37.888,36.331,37.011,37.392,36.953z"/><path fill="#482c2a" d="M37.495,73.645c-0.692,0-1.345-0.26-1.852-0.74C35.1,72.39,34.8,71.693,34.8,70.944V38.95 c0-1.434,1.122-2.618,2.554-2.696l0,0l33-1.784c0.751-0.036,1.459,0.222,2.002,0.736c0.543,0.515,0.843,1.211,0.843,1.96v31.994 c0,1.435-1.122,2.619-2.555,2.696l-33,1.784C37.595,73.643,37.545,73.645,37.495,73.645z M37.43,37.652 C36.74,37.689,36.2,38.26,36.2,38.95v31.994c0,0.361,0.144,0.696,0.406,0.944s0.598,0.367,0.964,0.354l33-1.784 c0.689-0.037,1.229-0.607,1.229-1.298V37.167c0-0.361-0.144-0.696-0.406-0.944s-0.599-0.374-0.964-0.354L37.43,37.652z"/><path fill="#482c2a" d="M50.5,69.556c-0.26,0-0.479-0.201-0.498-0.464c-0.02-0.275,0.188-0.515,0.463-0.534l14-1 c0.276-0.022,0.515,0.188,0.534,0.463c0.02,0.275-0.188,0.515-0.463,0.534l-14,1C50.523,69.555,50.511,69.556,50.5,69.556z"/><path fill="#482c2a" d="M67.5,68.556h-1c-0.276,0-0.5-0.224-0.5-0.5s0.224-0.5,0.5-0.5h1c0.276,0,0.5,0.224,0.5,0.5 S67.776,68.556,67.5,68.556z"/><path fill="#482c2a" d="M69.5,67.681c-0.276,0-0.5-0.224-0.5-0.5V39.056c0-0.276,0.224-0.5,0.5-0.5s0.5,0.224,0.5,0.5 v28.125C70,67.457,69.776,67.681,69.5,67.681z"/><path fill="#482c2a" d="M47,40.361c-0.263,0-0.484-0.206-0.499-0.472c-0.016-0.276,0.196-0.512,0.471-0.527l14.25-0.792 c0.288-0.026,0.511,0.195,0.527,0.471s-0.196,0.512-0.471,0.527l-14.25,0.792C47.018,40.361,47.009,40.361,47,40.361z"/><path fill="#482c2a" d="M43.5,40.556c-0.263,0-0.484-0.206-0.499-0.472c-0.016-0.276,0.195-0.512,0.471-0.527l1.5-0.083 c0.276-0.012,0.511,0.195,0.527,0.471s-0.195,0.512-0.471,0.527l-1.5,0.083C43.519,40.555,43.509,40.556,43.5,40.556z"/><path fill="#482c2a" d="M38.5,66.556c-0.276,0-0.5-0.224-0.5-0.5v-26c0-0.136,0.055-0.266,0.153-0.36 c0.098-0.094,0.228-0.151,0.366-0.139l2.625,0.101c0.276,0.011,0.491,0.243,0.48,0.519c-0.01,0.276-0.255,0.514-0.519,0.48 L39,40.575v25.48C39,66.332,38.776,66.556,38.5,66.556z"/><path fill="#482c2a" d="M48.375,34.153c-0.268,0-0.489-0.212-0.499-0.481c-0.01-0.276,0.205-0.508,0.481-0.518l1.75-0.065 c0.269-0.021,0.508,0.205,0.518,0.481c0.01,0.276-0.205,0.508-0.481,0.518l-1.75,0.065C48.387,34.153,48.381,34.153,48.375,34.153 z"/><path fill="#482c2a" d="M52,34.019c-0.268,0-0.489-0.212-0.499-0.481c-0.01-0.276,0.205-0.508,0.481-0.518l10.803-0.4 l-4.257-2.526l-1.103,0.042c-0.247,0.028-0.508-0.204-0.519-0.48c-0.011-0.276,0.205-0.508,0.48-0.519l1.25-0.048 c0.099-0.009,0.191,0.02,0.274,0.069l5.844,3.469c0.19,0.113,0.284,0.339,0.229,0.554s-0.244,0.368-0.466,0.376l-12.5,0.463 C52.012,34.019,52.006,34.019,52,34.019z"/><path fill="#482c2a" d="M38.072,30.922c-0.268,0-0.49-0.213-0.499-0.483c-0.01-0.276,0.207-0.507,0.482-0.517L54.67,29.35 c0.277-0.016,0.507,0.207,0.517,0.482c0.01,0.276-0.207,0.507-0.482,0.517l-16.615,0.572 C38.083,30.922,38.078,30.922,38.072,30.922z"/><g><path fill="#482c2a" d="M36.688,34.743c-0.137,0-0.268-0.056-0.363-0.156l-3.439-3.622 c-0.136-0.144-0.175-0.354-0.099-0.536c0.076-0.183,0.252-0.303,0.45-0.308l2.814-0.065c0.271,0.003,0.505,0.212,0.512,0.488 c0.006,0.276-0.212,0.505-0.488,0.512l-1.687,0.039l2.502,2.636l6.956-0.41c0.275-0.018,0.512,0.194,0.528,0.47 s-0.194,0.512-0.47,0.528l-7.188,0.424C36.707,34.743,36.697,34.743,36.688,34.743z"/></g><g><path fill="#482c2a" d="M32.5,63.931c-0.153,0-0.302-0.071-0.398-0.198l-3-3.958C29.036,59.688,29,59.581,29,59.472V43.306 c0-0.276,0.224-0.5,0.5-0.5s0.5,0.224,0.5,0.5v15.999l2,2.639V38.861l-2-2.417v4.612c0,0.276-0.224,0.5-0.5,0.5 s-0.5-0.224-0.5-0.5v-6c0-0.211,0.132-0.399,0.331-0.47c0.199-0.071,0.42-0.011,0.555,0.151l3,3.625 C32.959,38.452,33,38.564,33,38.681v24.75c0,0.215-0.137,0.406-0.341,0.474C32.607,63.922,32.553,63.931,32.5,63.931z"/></g><g><path fill="#ef7a5c" d="M44.5,64.055V46.243l-2,0.047c0,0,0.012-3.185,2-3.401c2.104-0.229,7-0.313,7-0.313l10,15.479 V44.227l-3,0.203c0,0,0.007-2.459,2-2.625c2.191-0.183,5.898-0.453,5.898-0.453s0.477,2.469-1.898,2.469v21.234 c0,0-5.338,1.482-7.338-1.518S48.5,49.055,48.5,49.055v14l3,1c0,0-0.123,1.927-2.115,2.115c-2.265,0.214-7.885,0.885-7.885,0.885 S41.5,64.055,44.5,64.055z"/><path fill="#482c2a" d="M41.5,67.306c-0.061,0-0.12-0.022-0.166-0.063c-0.053-0.047-0.084-0.116-0.084-0.187 c0-0.032,0.035-3.081,3-3.243V46.499l-1.744,0.041c-0.077-0.008-0.133-0.024-0.181-0.071c-0.048-0.047-0.076-0.112-0.075-0.18 c0-0.139,0.038-3.411,2.223-3.649c2.091-0.228,6.974-0.313,7.023-0.314c0.095,0.013,0.168,0.042,0.214,0.114l9.54,14.768V44.495 l-2.733,0.185c-0.076,0.005-0.138-0.02-0.188-0.067c-0.051-0.048-0.079-0.114-0.079-0.183c0.002-0.93,0.472-2.727,2.229-2.874 c2.192-0.183,5.901-0.454,5.901-0.454c0.12-0.009,0.239,0.078,0.264,0.202c0.01,0.051,0.234,1.264-0.436,2.076 c-0.335,0.406-0.825,0.634-1.458,0.681v20.993c0,0.112-0.075,0.211-0.183,0.241c-0.224,0.063-5.536,1.495-7.613-1.62 c-1.673-2.509-6.653-11.03-8.204-13.693v12.893l2.829,0.943c0.107,0.036,0.178,0.14,0.17,0.253 c-0.001,0.021-0.163,2.142-2.341,2.347c-2.236,0.211-7.823,0.878-7.879,0.885C41.52,67.305,41.51,67.306,41.5,67.306z M44.5,45.993c0.065,0,0.128,0.025,0.175,0.071c0.048,0.047,0.075,0.111,0.075,0.179v17.813c0,0.138-0.112,0.25-0.25,0.25 c-2.221,0-2.648,1.76-2.73,2.466c1.195-0.142,5.65-0.667,7.592-0.851c1.426-0.134,1.778-1.242,1.863-1.693l-2.804-0.935 c-0.102-0.034-0.171-0.13-0.171-0.237v-14c0-0.113,0.076-0.212,0.185-0.241c0.109-0.03,0.225,0.018,0.281,0.116 c0.066,0.115,6.681,11.509,8.654,14.469c1.673,2.509,5.942,1.679,6.88,1.461V43.821c0-0.138,0.112-0.25,0.25-0.25 c0.599,0,1.044-0.171,1.322-0.508c0.375-0.454,0.383-1.107,0.356-1.444c-0.851,0.063-3.799,0.28-5.658,0.436 c-1.395,0.117-1.691,1.508-1.754,2.107l2.716-0.184c0.073-0.007,0.137,0.02,0.188,0.067c0.05,0.047,0.079,0.113,0.079,0.183 v13.828c0,0.111-0.073,0.208-0.179,0.24s-0.221-0.011-0.281-0.104l-9.924-15.363c-0.812,0.016-4.967,0.105-6.839,0.309 c-1.437,0.157-1.712,2.172-1.765,2.896l1.732-0.041C44.496,45.993,44.498,45.993,44.5,45.993z"/></g></g></svg>